<mxfile host="app.diagrams.net" modified="2022-09-13T07:04:28.176Z" agent="5.0 (Macintosh; Intel Mac OS X 10_15_7) AppleWebKit/537.36 (KHTML, like Gecko) Chrome/105.0.0.0 Safari/537.36" etag="SvGw-AdNUCiQ8BQwFhp4" version="20.3.0" type="github">
  <diagram id="MciqL9jqsk8ZY0vNpW5Y" name="第 1 页">
    <mxGraphModel dx="946" dy="614" grid="1" gridSize="10" guides="1" tooltips="1" connect="1" arrows="1" fold="1" page="1" pageScale="1" pageWidth="850" pageHeight="1100" math="0" shadow="0">
      <root>
        <mxCell id="0" />
        <mxCell id="1" parent="0" />
        <mxCell id="bLDmUnxIfX-R1PKAGnAt-11" value="" style="rounded=0;whiteSpace=wrap;html=1;" vertex="1" parent="1">
          <mxGeometry x="230" y="110" width="260" height="380" as="geometry" />
        </mxCell>
        <mxCell id="bLDmUnxIfX-R1PKAGnAt-9" style="edgeStyle=orthogonalEdgeStyle;rounded=0;orthogonalLoop=1;jettySize=auto;html=1;exitX=0.5;exitY=1;exitDx=0;exitDy=0;entryX=0.5;entryY=0;entryDx=0;entryDy=0;" edge="1" parent="1" source="bLDmUnxIfX-R1PKAGnAt-1" target="bLDmUnxIfX-R1PKAGnAt-2">
          <mxGeometry relative="1" as="geometry" />
        </mxCell>
        <mxCell id="bLDmUnxIfX-R1PKAGnAt-1" value="解压 docx" style="rounded=1;whiteSpace=wrap;html=1;" vertex="1" parent="1">
          <mxGeometry x="280" y="130" width="160" height="40" as="geometry" />
        </mxCell>
        <mxCell id="bLDmUnxIfX-R1PKAGnAt-10" style="edgeStyle=orthogonalEdgeStyle;rounded=0;orthogonalLoop=1;jettySize=auto;html=1;exitX=0.5;exitY=1;exitDx=0;exitDy=0;entryX=0.5;entryY=0;entryDx=0;entryDy=0;" edge="1" parent="1" source="bLDmUnxIfX-R1PKAGnAt-2" target="bLDmUnxIfX-R1PKAGnAt-3">
          <mxGeometry relative="1" as="geometry" />
        </mxCell>
        <mxCell id="bLDmUnxIfX-R1PKAGnAt-2" value="读取 OpenXML" style="rounded=1;whiteSpace=wrap;html=1;" vertex="1" parent="1">
          <mxGeometry x="280" y="210" width="160" height="40" as="geometry" />
        </mxCell>
        <mxCell id="bLDmUnxIfX-R1PKAGnAt-3" value="解析 OpenXML" style="rounded=1;whiteSpace=wrap;html=1;" vertex="1" parent="1">
          <mxGeometry x="280" y="290" width="160" height="40" as="geometry" />
        </mxCell>
        <mxCell id="bLDmUnxIfX-R1PKAGnAt-4" value="转换形成scheme" style="rounded=1;whiteSpace=wrap;html=1;" vertex="1" parent="1">
          <mxGeometry x="280" y="430" width="160" height="40" as="geometry" />
        </mxCell>
        <mxCell id="bLDmUnxIfX-R1PKAGnAt-5" value="" style="curved=1;endArrow=classic;html=1;rounded=0;exitX=0.25;exitY=1;exitDx=0;exitDy=0;entryX=0.25;entryY=0;entryDx=0;entryDy=0;" edge="1" parent="1" source="bLDmUnxIfX-R1PKAGnAt-3" target="bLDmUnxIfX-R1PKAGnAt-4">
          <mxGeometry width="50" height="50" relative="1" as="geometry">
            <mxPoint x="400" y="340" as="sourcePoint" />
            <mxPoint x="450" y="290" as="targetPoint" />
            <Array as="points">
              <mxPoint x="220" y="380" />
            </Array>
          </mxGeometry>
        </mxCell>
        <mxCell id="bLDmUnxIfX-R1PKAGnAt-7" value="规则" style="edgeLabel;html=1;align=center;verticalAlign=middle;resizable=0;points=[];" vertex="1" connectable="0" parent="bLDmUnxIfX-R1PKAGnAt-5">
          <mxGeometry x="-0.42" y="20" relative="1" as="geometry">
            <mxPoint as="offset" />
          </mxGeometry>
        </mxCell>
        <mxCell id="bLDmUnxIfX-R1PKAGnAt-6" value="" style="curved=1;endArrow=classic;html=1;rounded=0;exitX=0.75;exitY=0;exitDx=0;exitDy=0;entryX=0.75;entryY=1;entryDx=0;entryDy=0;" edge="1" parent="1" source="bLDmUnxIfX-R1PKAGnAt-4" target="bLDmUnxIfX-R1PKAGnAt-3">
          <mxGeometry width="50" height="50" relative="1" as="geometry">
            <mxPoint x="400" y="340" as="sourcePoint" />
            <mxPoint x="450" y="290" as="targetPoint" />
            <Array as="points">
              <mxPoint x="510" y="380" />
            </Array>
          </mxGeometry>
        </mxCell>
        <mxCell id="bLDmUnxIfX-R1PKAGnAt-8" value="依赖" style="edgeLabel;html=1;align=center;verticalAlign=middle;resizable=0;points=[];" vertex="1" connectable="0" parent="bLDmUnxIfX-R1PKAGnAt-6">
          <mxGeometry x="-0.4247" y="20" relative="1" as="geometry">
            <mxPoint as="offset" />
          </mxGeometry>
        </mxCell>
      </root>
    </mxGraphModel>
  </diagram>
</mxfile>
